<svg width="204" height="63" viewBox="0 0 204 63" fill="none" xmlns="http://www.w3.org/2000/svg">
<path fill-rule="evenodd" clip-rule="evenodd" d="M49.5954 20.2435C48.343 8.61414 29.6901 2.51838 29.6901 2.51838C29.6901 2.51838 43.3134 7.81763 43.3134 16.0964C43.3134 23.3273 37.1799 23.8007 31.6667 24.2263C28.2919 24.4868 25.1495 24.7293 23.7887 26.4928C22.1587 28.6051 22.3684 30.434 23.4901 31.8645L25.6416 33.0694L26.8281 32.2913L27.8237 33.3641L29.2527 32.6188L30.3025 33.4643L31.7314 32.719L32.4047 33.0445L33.2945 32.461L34.2644 32.592L35.6134 31.1321L34.0477 33.501L33.0779 33.37L32.188 33.9535L31.5148 33.628L30.0317 34.6006L28.9277 33.9823L27.7745 34.5838C29.5968 35.191 31.5193 35.3873 32.8436 35.086C42.4036 32.911 50.4708 28.3714 49.5954 20.2435ZM26.9291 34.2688L26.4489 33.8821L26.2233 33.9499C26.4535 34.0633 26.6894 34.1697 26.9291 34.2688ZM34.3237 28.1431C33.1928 29.3632 31.0773 30.2541 29.5519 30.3135C29.5519 30.3135 30.0626 31.3208 32.0564 31.3555C33.6737 30.8702 34.1612 28.8249 34.3237 28.1431ZM25.6725 29.7896C24.5143 29.3986 24.0836 29.1058 23.4387 27.6113C23.421 27.7245 23.4025 27.8311 23.3848 27.9326C23.265 28.6218 23.1862 29.0749 23.6786 29.7548C23.9406 30.1166 24.5401 30.3403 25.6725 29.7896Z" fill="#EE9E3F"/>
<path fill-rule="evenodd" clip-rule="evenodd" d="M15.6716 54.1382C2.5516 47.4916 -9.68774 23.1704 25.5348 0.925617C25.5348 0.925617 4.55242 15.5838 18.6935 31.6148C23.8412 37.4505 28.0067 37.3763 32.9207 37.2887C34.7617 37.2559 36.7077 37.2212 38.8498 37.4947C50.6528 39.0017 54.8112 51.6336 43.4726 55.9473L41.6219 54.264L37.9964 54.7328L34.4348 52.0618L30.2705 53.1167L27.583 50.1893L30.5078 56.1526L34.186 54.9016L37.8021 57.2741C24.2015 59.2343 15.6716 54.1382 15.6716 54.1382ZM38.6251 46.5756C32.0803 45.9783 25.0022 42.2523 25.0022 42.2523C25.0022 42.2523 29.1019 48.8199 31.4323 49.4052C34.2924 49.8549 35.8543 48.8435 38.6251 46.5756Z" fill="#EE9E3F"/>
<path d="M70.7707 34.8994C70.2375 34.8994 69.6576 34.8528 69.0311 34.7594C68.4179 34.6795 67.798 34.4995 67.1715 34.2196C66.5584 33.9396 65.9652 33.5464 65.392 33.0399C64.8321 32.52 64.3322 31.8402 63.8923 31.0004C63.4658 30.1606 63.1192 29.1275 62.8526 27.9011C62.5993 26.6614 62.4727 25.1885 62.4727 23.4822V11.3852C62.4727 9.66557 62.606 8.19926 62.8726 6.98623C63.1392 5.75986 63.4924 4.73344 63.9323 3.90698C64.3722 3.06718 64.8788 2.40068 65.452 1.90747C66.0251 1.41425 66.6183 1.04101 67.2315 0.78774C67.8447 0.521139 68.4512 0.347848 69.0511 0.267867C69.6643 0.187887 70.2308 0.147897 70.7507 0.147897C72.1103 0.147897 73.2434 0.341183 74.1498 0.727755C75.0696 1.101 75.8028 1.62087 76.3493 2.28737C76.9092 2.94055 77.3024 3.70703 77.529 4.58681C77.7689 5.4666 77.8889 6.3997 77.8889 7.38613C77.8889 8.11928 77.8489 8.79912 77.7689 9.42563C77.7023 10.0388 77.5957 10.7186 77.449 11.4651H73.2501V9.72556C73.2501 7.84602 73.0434 6.43969 72.6302 5.50659C72.217 4.57348 71.6105 4.10693 70.8106 4.10693C70.3308 4.10693 69.9109 4.20024 69.551 4.38686C69.191 4.57348 68.8911 4.8934 68.6512 5.34663C68.4112 5.78652 68.2246 6.37304 68.0913 7.1062C67.9713 7.83935 67.9114 8.75246 67.9114 9.84553V25.4417C67.9114 26.5081 67.958 27.3946 68.0513 28.1011C68.158 28.8076 68.3246 29.3741 68.5512 29.8007C68.7778 30.2272 69.0711 30.5338 69.431 30.7204C69.8042 30.8937 70.2508 30.9804 70.7707 30.9804C71.1039 30.9804 71.4238 30.9071 71.7304 30.7604C72.037 30.6005 72.3036 30.3605 72.5302 30.0406C72.7702 29.7073 72.9568 29.2941 73.0901 28.8009C73.2367 28.2944 73.31 27.7012 73.31 27.0213V23.6822H78.0489V26.8414C78.0489 29.5874 77.4224 31.6135 76.1693 32.9199C74.9163 34.2262 73.1167 34.8861 70.7707 34.8994ZM85.4775 0.447823H91.436L97.7545 34.5995H92.5157L91.576 28.481H85.3375L84.4377 34.5995H79.179L85.4775 0.447823ZM90.9761 24.5819L88.5767 7.56609H88.3568L85.9374 24.5819H90.9761ZM100.664 0.447823H105.843V30.5205H112.901V34.5995H100.664V0.447823ZM123.129 34.8994C122.596 34.8994 122.016 34.8528 121.39 34.7594C120.776 34.6795 120.156 34.4995 119.53 34.2196C118.917 33.9396 118.324 33.5464 117.75 33.0399C117.191 32.52 116.691 31.8402 116.251 31.0004C115.824 30.1606 115.478 29.1275 115.211 27.9011C114.958 26.6614 114.831 25.1885 114.831 23.4822V11.3852C114.831 9.66557 114.964 8.19926 115.231 6.98623C115.498 5.75986 115.851 4.73344 116.291 3.90698C116.731 3.06718 117.237 2.40068 117.81 1.90747C118.384 1.41425 118.977 1.04101 119.59 0.78774C120.203 0.521139 120.81 0.347848 121.409 0.267867C122.023 0.187887 122.589 0.147897 123.109 0.147897C124.469 0.147897 125.602 0.341183 126.508 0.727755C127.428 1.101 128.161 1.62087 128.708 2.28737C129.268 2.94055 129.661 3.70703 129.887 4.58681C130.127 5.4666 130.247 6.3997 130.247 7.38613C130.247 8.11928 130.207 8.79912 130.127 9.42563C130.061 10.0388 129.954 10.7186 129.807 11.4651H125.608V9.72556C125.608 7.84602 125.402 6.43969 124.989 5.50659C124.575 4.57348 123.969 4.10693 123.169 4.10693C122.689 4.10693 122.269 4.20024 121.909 4.38686C121.549 4.57348 121.25 4.8934 121.01 5.34663C120.77 5.78652 120.583 6.37304 120.45 7.1062C120.33 7.83935 120.27 8.75246 120.27 9.84553V25.4417C120.27 26.5081 120.316 27.3946 120.41 28.1011C120.516 28.8076 120.683 29.3741 120.91 29.8007C121.136 30.2272 121.429 30.5338 121.789 30.7204C122.163 30.8937 122.609 30.9804 123.129 30.9804C123.462 30.9804 123.782 30.9071 124.089 30.7604C124.395 30.6005 124.662 30.3605 124.889 30.0406C125.129 29.7073 125.315 29.2941 125.449 28.8009C125.595 28.2944 125.668 27.7012 125.668 27.0213V23.6822H130.407V26.8414C130.407 29.5874 129.781 31.6135 128.528 32.9199C127.275 34.2262 125.475 34.8861 123.129 34.8994ZM134.077 0.447823H139.256V34.5995H134.077V0.447823ZM144.705 0.447823H157.761V4.52683H149.883V14.7443H156.062V18.8233H149.883V34.5995H144.705V0.447823ZM160.811 0.447823H173.468V4.52683H165.99V14.7443H171.768V18.8233H165.99V30.5205H173.668V34.5995H160.811V0.447823ZM176.998 0.447823H182.616C183.256 0.447823 183.956 0.474483 184.716 0.527804C185.489 0.581124 186.255 0.714425 187.015 0.927706C187.788 1.12766 188.528 1.43425 189.235 1.84748C189.954 2.26071 190.588 2.82724 191.134 3.54707C191.694 4.26689 192.14 5.17334 192.474 6.2664C192.807 7.34614 192.974 8.65915 192.974 10.2054V11.0652C192.974 13.6646 192.6 15.7841 191.854 17.4237C191.107 19.0499 190.008 20.223 188.555 20.9428L194.033 34.5995H188.555L184.016 21.8226H182.076V34.5995H176.998V0.447823ZM182.856 18.0835C183.763 18.0835 184.529 17.9835 185.156 17.7836C185.782 17.5836 186.289 17.2504 186.675 16.7838C187.062 16.304 187.342 15.6774 187.515 14.9043C187.688 14.1178 187.775 13.1514 187.775 12.005V9.30566C187.775 8.42588 187.695 7.66606 187.535 7.02622C187.375 6.38637 187.102 5.85984 186.715 5.4466C186.342 5.03337 185.842 4.72678 185.216 4.52683C184.589 4.32688 183.803 4.2269 182.856 4.2269H182.076V18.0835H182.856ZM61.4529 54.4485C61.4529 54.0086 61.4769 53.6047 61.5249 53.2368C61.5809 52.8609 61.6609 52.457 61.7649 52.0251H64.1763V53.0208C64.1763 53.5727 64.2083 54.0606 64.2722 54.4845C64.3442 54.9084 64.4562 55.2683 64.6082 55.5642C64.7681 55.8522 64.9761 56.0721 65.232 56.2241C65.4959 56.368 65.8159 56.44 66.1918 56.44C66.7836 56.44 67.2355 56.2801 67.5474 55.9601C67.8594 55.6322 68.0153 55.1563 68.0153 54.5325C68.0153 54.2126 67.9913 53.9206 67.9433 53.6567C67.9034 53.3848 67.8274 53.1168 67.7154 52.8529C67.6114 52.589 67.4675 52.313 67.2835 52.0251C67.0996 51.7292 66.8636 51.4012 66.5757 51.0413L63.3365 47.1903C62.7606 46.4545 62.3167 45.7146 62.0048 44.9708C61.6929 44.219 61.5369 43.4192 61.5369 42.5714C61.5369 41.8916 61.6409 41.2677 61.8488 40.6999C62.0648 40.132 62.3727 39.6441 62.7726 39.2362C63.1725 38.8203 63.6644 38.5004 64.2482 38.2764C64.8401 38.0445 65.5079 37.9285 66.2518 37.9285C67.1555 37.9285 67.9074 38.0565 68.5072 38.3124C69.1151 38.5684 69.5989 38.9043 69.9589 39.3202C70.3188 39.7361 70.5707 40.204 70.7147 40.7239C70.8666 41.2357 70.9426 41.7516 70.9426 42.2715C70.9426 42.7114 70.9066 43.1193 70.8346 43.4952C70.7707 43.8631 70.6947 44.271 70.6067 44.7189H68.2073V43.7471C68.2073 42.6594 68.0513 41.8276 67.7394 41.2517C67.4275 40.6679 66.9196 40.3759 66.2158 40.3759C65.6319 40.3759 65.196 40.5399 64.9081 40.8678C64.6202 41.1877 64.4762 41.6196 64.4762 42.1635C64.4762 42.4514 64.4962 42.7114 64.5362 42.9433C64.5842 43.1753 64.6481 43.3912 64.7281 43.5912C64.8161 43.7831 64.9201 43.9711 65.0401 44.155C65.16 44.339 65.296 44.5309 65.448 44.7309L69.0591 49.0978C69.7149 49.9536 70.2188 50.7774 70.5707 51.5692C70.9226 52.353 71.0986 53.1848 71.0986 54.0646C71.0986 54.7924 70.9826 55.4483 70.7507 56.0321C70.5267 56.616 70.2028 57.1119 69.7789 57.5198C69.355 57.9277 68.8431 58.2436 68.2433 58.4675C67.6434 58.6835 66.9676 58.7914 66.2158 58.7914C65.288 58.7914 64.5162 58.6675 63.9003 58.4195C63.2925 58.1716 62.8046 57.8437 62.4367 57.4358C62.0768 57.0279 61.8208 56.564 61.6689 56.0441C61.5249 55.5242 61.4529 54.9924 61.4529 54.4485ZM75.3638 40.5559H72.0646V38.1085H81.7582V40.5559H78.471V58.5995H75.3638V40.5559ZM83.54 38.1085H86.6713V53.1288C86.6713 53.7687 86.7032 54.3005 86.7672 54.7244C86.8312 55.1483 86.9312 55.4882 87.0672 55.7442C87.2111 55.9921 87.3911 56.1721 87.607 56.2841C87.831 56.388 88.0949 56.44 88.3988 56.44C88.7028 56.44 88.9667 56.388 89.1906 56.2841C89.4226 56.1721 89.6105 55.9921 89.7545 55.7442C89.9065 55.4882 90.0184 55.1483 90.0904 54.7244C90.1704 54.3005 90.2104 53.7687 90.2104 53.1288V38.1085H93.3056V52.301C93.3056 53.3008 93.2257 54.1566 93.0657 54.8684C92.9057 55.5802 92.6938 56.1761 92.4298 56.656C92.1659 57.1358 91.862 57.5158 91.5181 57.7957C91.1822 58.0756 90.8302 58.2916 90.4623 58.4435C90.1024 58.5875 89.7425 58.6795 89.3826 58.7195C89.0227 58.7594 88.6948 58.7794 88.3988 58.7794C88.1029 58.7794 87.775 58.7594 87.4151 58.7195C87.0632 58.6795 86.7072 58.5875 86.3473 58.4435C85.9874 58.2916 85.6395 58.0756 85.3036 57.7957C84.9677 57.5158 84.6677 57.1358 84.4038 56.656C84.1399 56.1761 83.9279 55.5842 83.768 54.8804C83.616 54.1686 83.54 53.3088 83.54 52.301V38.1085ZM96.4911 38.1085H99.7183C100.206 38.1085 100.71 38.1245 101.23 38.1565C101.758 38.1805 102.27 38.2645 102.766 38.4084C103.269 38.5524 103.741 38.7763 104.181 39.0803C104.629 39.3762 105.021 39.7961 105.357 40.3399C105.693 40.8758 105.957 41.5556 106.149 42.3794C106.349 43.1952 106.449 44.195 106.449 45.3787V51.3293C106.449 52.513 106.349 53.5167 106.149 54.3405C105.957 55.1643 105.693 55.8442 105.357 56.38C105.021 56.9159 104.629 57.3358 104.181 57.6397C103.741 57.9356 103.269 58.1556 102.766 58.2996C102.27 58.4435 101.758 58.5315 101.23 58.5635C100.71 58.5875 100.206 58.5995 99.7183 58.5995H96.4911V38.1085ZM100.39 56.428C100.95 56.428 101.41 56.356 101.77 56.2121C102.138 56.0681 102.426 55.8162 102.634 55.4563C102.85 55.0883 102.998 54.5925 103.077 53.9686C103.157 53.3368 103.197 52.541 103.197 51.5812V45.2228C103.197 44.263 103.157 43.4712 103.077 42.8473C102.998 42.2155 102.85 41.7196 102.634 41.3597C102.426 40.9918 102.138 40.7358 101.77 40.5919C101.41 40.4479 100.95 40.3759 100.39 40.3759H99.5983V56.428H100.39ZM108.986 38.1085H112.094V58.5995H108.986V38.1085ZM119.898 58.7794C119.57 58.7794 119.214 58.7515 118.83 58.6955C118.446 58.6475 118.066 58.5395 117.69 58.3715C117.314 58.2036 116.951 57.9676 116.599 57.6637C116.255 57.3518 115.947 56.9439 115.675 56.44C115.411 55.9361 115.199 55.3163 115.039 54.5805C114.879 53.8367 114.799 52.9529 114.799 51.9291V44.6709C114.799 43.6391 114.879 42.7594 115.039 42.0315C115.207 41.2957 115.427 40.6799 115.699 40.184C115.971 39.6801 116.279 39.2802 116.623 38.9843C116.975 38.6883 117.338 38.4644 117.714 38.3124C118.098 38.1525 118.478 38.0485 118.854 38.0005C119.23 37.9525 119.578 37.9285 119.898 37.9285C120.202 37.9285 120.538 37.9525 120.906 38.0005C121.282 38.0405 121.653 38.1365 122.021 38.2884C122.397 38.4324 122.761 38.6524 123.113 38.9483C123.465 39.2362 123.777 39.6321 124.049 40.136C124.321 40.6319 124.537 41.2517 124.697 41.9955C124.865 42.7314 124.949 43.6231 124.949 44.6709V51.9291C124.949 52.9449 124.865 53.8207 124.697 54.5565C124.529 55.2843 124.309 55.9041 124.037 56.416C123.765 56.9199 123.449 57.3278 123.089 57.6397C122.737 57.9436 122.373 58.1836 121.997 58.3595C121.629 58.5275 121.262 58.6395 120.894 58.6955C120.526 58.7515 120.194 58.7794 119.898 58.7794ZM119.898 56.44C120.202 56.44 120.466 56.388 120.69 56.2841C120.922 56.1801 121.11 56.0001 121.254 55.7442C121.405 55.4882 121.517 55.1523 121.589 54.7364C121.669 54.3125 121.709 53.7807 121.709 53.1408V43.8191C121.709 43.1633 121.669 42.6154 121.589 42.1755C121.517 41.7356 121.405 41.3837 121.254 41.1198C121.11 40.8478 120.922 40.6559 120.69 40.5439C120.466 40.4319 120.202 40.3759 119.898 40.3759C119.586 40.3759 119.314 40.4319 119.082 40.5439C118.85 40.6559 118.658 40.8478 118.506 41.1198C118.354 41.3837 118.238 41.7356 118.158 42.1755C118.086 42.6154 118.05 43.1633 118.05 43.8191V53.1408C118.05 53.7807 118.086 54.3125 118.158 54.7364C118.238 55.1523 118.354 55.4882 118.506 55.7442C118.658 56.0001 118.85 56.1801 119.082 56.2841C119.314 56.388 119.586 56.44 119.898 56.44ZM126.85 54.4485C126.85 54.0086 126.874 53.6047 126.922 53.2368C126.978 52.8609 127.058 52.457 127.162 52.0251H129.574V53.0208C129.574 53.5727 129.606 54.0606 129.67 54.4845C129.742 54.9084 129.854 55.2683 130.006 55.5642C130.166 55.8522 130.374 56.0721 130.629 56.2241C130.893 56.368 131.213 56.44 131.589 56.44C132.181 56.44 132.633 56.2801 132.945 55.9601C133.257 55.6322 133.413 55.1563 133.413 54.5325C133.413 54.2126 133.389 53.9206 133.341 53.6567C133.301 53.3848 133.225 53.1168 133.113 52.8529C133.009 52.589 132.865 52.313 132.681 52.0251C132.497 51.7292 132.261 51.4012 131.973 51.0413L128.734 47.1903C128.158 46.4545 127.714 45.7146 127.402 44.9708C127.09 44.219 126.934 43.4192 126.934 42.5714C126.934 41.8916 127.038 41.2677 127.246 40.6999C127.462 40.132 127.77 39.6441 128.17 39.2362C128.57 38.8203 129.062 38.5004 129.646 38.2764C130.238 38.0445 130.905 37.9285 131.649 37.9285C132.553 37.9285 133.305 38.0565 133.905 38.3124C134.513 38.5684 134.996 38.9043 135.356 39.3202C135.716 39.7361 135.968 40.204 136.112 40.7239C136.264 41.2357 136.34 41.7516 136.34 42.2715C136.34 42.7114 136.304 43.1193 136.232 43.4952C136.168 43.8631 136.092 44.271 136.004 44.7189H133.605V43.7471C133.605 42.6594 133.449 41.8276 133.137 41.2517C132.825 40.6679 132.317 40.3759 131.613 40.3759C131.029 40.3759 130.593 40.5399 130.306 40.8678C130.018 41.1877 129.874 41.6196 129.874 42.1635C129.874 42.4514 129.894 42.7114 129.934 42.9433C129.982 43.1753 130.046 43.3912 130.126 43.5912C130.214 43.7831 130.318 43.9711 130.438 44.155C130.558 44.339 130.693 44.5309 130.845 44.7309L134.457 49.0978C135.112 49.9536 135.616 50.7774 135.968 51.5692C136.32 52.353 136.496 53.1848 136.496 54.0646C136.496 54.7924 136.38 55.4483 136.148 56.0321C135.924 56.616 135.6 57.1119 135.176 57.5198C134.752 57.9277 134.241 58.2436 133.641 58.4675C133.041 58.6835 132.365 58.7914 131.613 58.7914C130.685 58.7914 129.914 58.6675 129.298 58.4195C128.69 58.1716 128.202 57.8437 127.834 57.4358C127.474 57.0279 127.218 56.564 127.066 56.0441C126.922 55.5242 126.85 54.9924 126.85 54.4485Z" fill="#EE9E3F"/>
</svg>
