<svg width="30" height="23" viewBox="0 0 30 23" fill="none" xmlns="http://www.w3.org/2000/svg">
<path id="Vector" d="M15 17.125C14.0314 17.125 13.0629 16.8073 12.2367 16.1635L0 6.64844V19.9375C0 21.4902 1.25918 22.75 2.8125 22.75H27.1875C28.7408 22.75 30 21.4908 30 19.9375V6.64844L17.7656 16.1699C16.9395 16.8086 15.9668 17.125 15 17.125ZM0.954492 5.01367L13.3881 14.6875C14.3367 15.4258 15.6656 15.4258 16.6143 14.6875L29.0479 5.01367C29.5957 4.54492 30 3.82422 30 3.0625C30 1.50918 28.7402 0.25 27.1875 0.25H2.8125C1.25918 0.25 0 1.50918 0 3.0625C0 3.82422 0.352148 4.54492 0.954492 5.01367Z" fill="#393838"/>
</svg>
