<svg width="31" height="30" viewBox="0 0 31 30" fill="none" xmlns="http://www.w3.org/2000/svg">
<g id="Instagram" clip-path="url(#clip0_1_387)">
<path id="Vector" fill-rule="evenodd" clip-rule="evenodd" d="M26.668 0C28.691 0 30.3333 1.64238 30.3333 3.66527V26.3347C30.3333 28.3576 28.6909 30 26.668 30H3.99859C1.9757 30 0.333313 28.3576 0.333313 26.3347V3.66527C0.333313 1.64238 1.97564 0 3.99859 0L26.668 0ZM15.3333 4.74609C12.5485 4.74609 12.1993 4.75787 11.1057 4.80779C10.0142 4.8576 9.26886 5.03092 8.61659 5.28445C7.9423 5.54648 7.37048 5.89711 6.80042 6.46711C6.23036 7.03717 5.87974 7.60904 5.61771 8.28328C5.36423 8.93555 5.19091 9.68092 5.14105 10.7723C5.09118 11.866 5.07941 12.2152 5.07941 15C5.07941 17.7848 5.09118 18.134 5.14105 19.2277C5.19091 20.3191 5.36423 21.0645 5.61771 21.7167C5.87974 22.391 6.23036 22.9628 6.80042 23.5329C7.37048 24.1029 7.9423 24.4536 8.61659 24.7156C9.26886 24.9691 10.0142 25.1424 11.1057 25.1922C12.1993 25.2421 12.5485 25.2539 15.3333 25.2539C18.1181 25.2539 18.4673 25.2421 19.561 25.1922C20.6524 25.1424 21.3978 24.9691 22.05 24.7156C22.7243 24.4536 23.2961 24.1029 23.8662 23.5329C24.4363 22.9628 24.7869 22.391 25.0489 21.7167C25.3024 21.0645 25.4757 20.3191 25.5255 19.2277C25.5754 18.134 25.5872 17.7848 25.5872 15C25.5872 12.2152 25.5754 11.866 25.5255 10.7723C25.4757 9.68092 25.3024 8.93555 25.0489 8.28328C24.7869 7.60904 24.4363 7.03717 23.8662 6.46711C23.2961 5.89711 22.7243 5.54648 22.05 5.28445C21.3978 5.03092 20.6524 4.8576 19.561 4.80779C18.4673 4.75787 18.1181 4.74609 15.3333 4.74609ZM15.3333 6.59367C18.0712 6.59367 18.3955 6.6041 19.4768 6.65344C20.4765 6.69908 21.0194 6.86613 21.3808 7.00646C21.8594 7.1925 22.201 7.41475 22.5598 7.77352C22.9186 8.13234 23.1408 8.47394 23.3268 8.95254C23.4672 9.31389 23.6343 9.85682 23.6799 10.8565C23.7292 11.9378 23.7397 12.2621 23.7397 15C23.7397 17.7379 23.7292 18.0622 23.6799 19.1435C23.6343 20.1432 23.4672 20.6861 23.3268 21.0475C23.1408 21.5261 22.9186 21.8677 22.5598 22.2265C22.201 22.5853 21.8594 22.8075 21.3808 22.9935C21.0194 23.1339 20.4765 23.301 19.4768 23.3466C18.3957 23.3959 18.0714 23.4064 15.3333 23.4064C12.5952 23.4064 12.271 23.3959 11.1899 23.3466C10.1901 23.301 9.6472 23.1339 9.28585 22.9935C8.8072 22.8075 8.46566 22.5853 8.10683 22.2265C7.748 21.8677 7.52575 21.5261 7.33978 21.0475C7.19939 20.6861 7.03234 20.1432 6.98669 19.1435C6.93736 18.0622 6.92693 17.7379 6.92693 15C6.92693 12.2621 6.93736 11.9378 6.98669 10.8565C7.03234 9.85682 7.19939 9.31389 7.33978 8.95254C7.52575 8.47394 7.748 8.13234 8.10683 7.77352C8.46566 7.41475 8.8072 7.1925 9.28585 7.00646C9.6472 6.86613 10.1901 6.69908 11.1899 6.65344C12.2711 6.6041 12.5954 6.59367 15.3333 6.59367ZM15.3333 9.73447C12.4252 9.73447 10.0678 12.0919 10.0678 15C10.0678 17.9081 12.4252 20.2655 15.3333 20.2655C18.2414 20.2655 20.5988 17.9081 20.5988 15C20.5988 12.0919 18.2414 9.73447 15.3333 9.73447ZM15.3333 18.4179C13.4456 18.4179 11.9154 16.8877 11.9154 15C11.9154 13.1123 13.4456 11.5821 15.3333 11.5821C17.221 11.5821 18.7513 13.1123 18.7513 15C18.7513 16.8877 17.221 18.4179 15.3333 18.4179ZM22.0374 9.52647C22.0374 10.206 21.4864 10.7569 20.8068 10.7569C20.1273 10.7569 19.5764 10.206 19.5764 9.52647C19.5764 8.8469 20.1273 8.296 20.8068 8.296C21.4864 8.296 22.0374 8.8469 22.0374 9.52647Z" fill="black"/>
</g>
<defs>
<clipPath id="clip0_1_387">
<rect width="30" height="30" fill="white" transform="translate(0.333313)"/>
</clipPath>
</defs>
</svg>
