<svg width="31" height="30" viewBox="0 0 31 30" fill="none" xmlns="http://www.w3.org/2000/svg">
<g id="Linkedin" clip-path="url(#clip0_1_385)">
<path id="Vector" fill-rule="evenodd" clip-rule="evenodd" d="M26.668 0C28.691 0 30.3333 1.64238 30.3333 3.66527V26.3347C30.3333 28.3576 28.6909 30 26.668 30H3.99859C1.9757 30 0.333313 28.3576 0.333313 26.3347V3.66527C0.333313 1.64238 1.97564 0 3.99859 0L26.668 0ZM9.73532 24.8014V11.5758H5.33845V24.8014H9.73532ZM25.5872 24.8014V17.2171C25.5872 13.1546 23.4182 11.2648 20.5258 11.2648C18.1936 11.2648 17.1488 12.5475 16.5639 13.4484V11.5758H12.1681C12.2264 12.8169 12.1681 24.8014 12.1681 24.8014H16.5638V17.4153C16.5638 17.02 16.5923 16.6248 16.7088 16.3422C17.026 15.5527 17.7498 14.7347 18.9643 14.7347C20.5543 14.7347 21.1913 15.948 21.1913 17.7252V24.8014H25.5872ZM7.56659 5.19855C6.06226 5.19855 5.07941 6.18756 5.07941 7.48383C5.07941 8.75285 6.03238 9.7691 7.50841 9.7691H7.53677C9.06988 9.7691 10.0242 8.75285 10.0242 7.48383C9.99577 6.18937 9.07257 5.20137 7.56659 5.19855Z" fill="black"/>
</g>
<defs>
<clipPath id="clip0_1_385">
<rect width="30" height="30" fill="white" transform="translate(0.333313)"/>
</clipPath>
</defs>
</svg>
