<svg width="30" height="30" viewBox="0 0 30 30" fill="none" xmlns="http://www.w3.org/2000/svg">
<g id="Phone">
<path id="Vector" d="M26.8586 20.1392C25.8218 19.0739 22.8747 17.0781 20.9431 17.0781C20.4958 17.0781 20.1052 17.1776 19.7856 17.3835C18.8411 17.9872 18.0884 18.456 17.7262 18.456C17.5274 18.456 17.3144 18.2784 16.8457 17.8736L16.7676 17.8026C15.468 16.6733 15.1911 16.3821 14.6869 15.8565L14.559 15.7216C14.4667 15.6293 14.3886 15.544 14.3105 15.4659C13.8702 15.0114 13.5507 14.6847 12.4215 13.4062L12.3718 13.3494C11.8321 12.7386 11.4771 12.3409 11.4558 12.0497C11.4345 11.7656 11.683 11.304 12.315 10.4446C13.082 9.40767 13.1104 8.12926 12.4073 6.64489C11.8463 5.47301 10.9303 4.35085 10.1207 3.36364L10.0497 3.27841C9.35376 2.42614 8.54421 2 7.64234 2C6.64105 2 5.81019 2.53977 5.36991 2.82386C5.3344 2.84517 5.2989 2.87358 5.26339 2.89489C4.27631 3.51989 3.55907 4.37926 3.28922 5.25284C2.88444 6.56676 2.61459 8.27131 4.55326 11.8153C6.22917 14.8835 7.74886 16.9432 10.1633 19.4219C12.4357 21.7514 13.4441 22.5043 15.7024 24.1378C18.2162 25.956 20.6307 27 22.3208 27C23.8902 27 25.1258 27 26.887 24.8764C28.7333 22.6463 27.9664 21.2827 26.8586 20.1392Z" fill="#393838"/>
</g>
</svg>
